<?xml version="1.0" standalone="no"?><!DOCTYPE svg PUBLIC "-//W3C//DTD SVG 1.1//EN" "http://www.w3.org/Graphics/SVG/1.1/DTD/svg11.dtd"><svg t="1736849528217" class="icon" viewBox="0 0 1024 1024" version="1.1" xmlns="http://www.w3.org/2000/svg" p-id="13390" xmlns:xlink="http://www.w3.org/1999/xlink" width="200" height="200"><path d="M945.230769 153.6H78.769231c-43.323077 0-78.769231 35.446154-78.769231 78.769231v559.261538c0 43.323077 35.446154 78.769231 78.769231 78.769231h866.461538c43.323077 0 78.769231-35.446154 78.769231-78.769231v-559.261538c0-43.323077-35.446154-78.769231-78.769231-78.769231z m47.261539 638.030769c0 25.993846-21.267692 47.261538-47.261539 47.261539H78.769231c-25.993846 0-47.261538-21.267692-47.261539-47.261539v-559.261538c0-25.993846 21.267692-47.261538 47.261539-47.261539h866.461538c25.993846 0 47.261538 21.267692 47.261539 47.261539v559.261538z" fill="#AAAAAA" p-id="13391"></path><path d="M508.849231 377.304615H141.784615c-8.664615 0-15.753846 7.089231-15.753846 15.753847s7.089231 15.753846 15.753846 15.753846h366.276923c8.664615 0 15.753846-7.089231 15.753847-15.753846 0.787692-8.664615-6.301538-15.753846-14.966154-15.753847zM480.492308 496.246154H141.784615c-8.664615 0-15.753846 7.089231-15.753846 15.753846s7.089231 15.753846 15.753846 15.753846h338.707693c8.664615 0 15.753846-7.089231 15.753846-15.753846s-7.089231-15.753846-15.753846-15.753846zM394.633846 615.187692H141.784615c-8.664615 0-15.753846 7.089231-15.753846 15.753846s7.089231 15.753846 15.753846 15.753847h252.849231c8.664615 0 15.753846-7.089231 15.753846-15.753847s-7.089231-15.753846-15.753846-15.753846zM795.569231 519.876923c30.72-19.692308 51.2-53.563077 51.2-92.947692 0-60.652308-49.624615-110.276923-110.276923-110.276923s-110.276923 49.624615-110.276923 110.276923c0 39.384615 20.48 73.255385 51.2 92.947692-57.501538 23.630769-98.461538 80.344615-98.461539 145.723077 0 8.664615 7.089231 15.753846 15.753846 15.753846s15.753846-7.089231 15.753846-15.753846c0-69.316923 56.713846-126.030769 126.03077-126.030769s126.030769 56.713846 126.030769 126.030769c0 8.664615 7.089231 15.753846 15.753846 15.753846s15.753846-7.089231 15.753846-15.753846c0-66.166154-40.96-122.88-98.461538-145.723077zM657.723077 426.929231c0-43.323077 35.446154-78.769231 78.769231-78.769231s78.769231 35.446154 78.76923 78.769231-35.446154 78.769231-78.76923 78.769231-78.769231-35.446154-78.769231-78.769231z" fill="#AAAAAA" p-id="13392"></path></svg>