<?xml version="1.0" standalone="no"?><!DOCTYPE svg PUBLIC "-//W3C//DTD SVG 1.1//EN" "http://www.w3.org/Graphics/SVG/1.1/DTD/svg11.dtd"><svg t="1736849314749" class="icon" viewBox="0 0 1024 1024" version="1.1" xmlns="http://www.w3.org/2000/svg" p-id="9102" xmlns:xlink="http://www.w3.org/1999/xlink" width="200" height="200"><path d="M352 438.857143v-76.379429C352 255.945143 431.542857 169.142857 530.285714 169.142857s178.285714 86.802286 178.285715 193.334857V438.857143H731.428571a73.142857 73.142857 0 0 1 73.142858 73.142857v256a73.142857 73.142857 0 0 1-73.142858 73.142857H329.142857a73.142857 73.142857 0 0 1-73.142857-73.142857V512a73.142857 73.142857 0 0 1 73.142857-73.142857h22.857143z m27.428571 0h301.714286v-76.379429c0-91.885714-67.821714-165.906286-150.857143-165.906285s-150.857143 74.020571-150.857143 165.906285V438.857143zM329.142857 466.285714a45.714286 45.714286 0 0 0-45.714286 45.714286v256a45.714286 45.714286 0 0 0 45.714286 45.714286h402.285714a45.714286 45.714286 0 0 0 45.714286-45.714286V512a45.714286 45.714286 0 0 0-45.714286-45.714286H329.142857z m236.434286 251.721143a25.417143 25.417143 0 1 1-50.834286 0v-55.588571c-3.291429-2.56-8.521143-6.601143-11.136-9.051429-12.068571-11.282286-19.035429-25.197714-19.035428-43.830857 0-33.28 23.332571-51.821714 54.857142-51.821714 29.970286 0 54.857143 21.065143 54.857143 51.821714 0 16.493714-6.528 29.622857-17.792 41.142857-2.56 2.614857-7.789714 7.204571-10.916571 9.929143v57.417143z m-18.285714 0v-65.115428l2.505142-2.651429c1.28-1.334857 10.733714-9.380571 13.622858-12.342857 8.192-8.374857 12.580571-17.188571 12.580571-28.342857 0-19.931429-16.091429-33.554286-36.571429-33.554286-22.235429 0-36.571429 11.392-36.571428 33.536 0 13.165714 4.626286 22.436571 13.238857 30.464 3.017143 2.816 12.818286 10.166857 13.970286 11.227429l2.944 2.706285v64.073143a7.131429 7.131429 0 1 0 14.262857 0z" fill="#979797" p-id="9103"></path></svg>